<?xml version="1.0" encoding="UTF-8" standalone="no"?><svg xmlns="http://www.w3.org/2000/svg" xmlns:xlink="http://www.w3.org/1999/xlink" contentScriptType="application/ecmascript" contentStyleType="text/css" height="124px" preserveAspectRatio="none" style="width:504px;height:124px;" version="1.1" viewBox="0 0 504 124" width="504px" zoomAndPan="magnify"><defs/><g><ellipse cx="200.9178" cy="99.4342" fill="#F8F8F8" rx="15.4178" ry="12.9342" style="stroke: #383838; stroke-width: 0.5;"/><text fill="#000000" font-family="Tahoma, sans-serif" font-size="12" lengthAdjust="spacingAndGlyphs" textLength="17" x="192.4178" y="103.1764">api</text><ellipse cx="315.8492" cy="47.242" fill="#F8F8F8" rx="17.8492" ry="13.242" style="stroke: #383838; stroke-width: 0.5;"/><text fill="#000000" font-family="Tahoma, sans-serif" font-size="12" lengthAdjust="spacingAndGlyphs" textLength="21" x="305.3492" y="50.9842">App</text><ellipse cx="47.1838" cy="47.242" fill="#F8F8F8" rx="41.1838" ry="13.242" style="stroke: #383838; stroke-width: 0.5;"/><text fill="#000000" font-family="Tahoma, sans-serif" font-size="12" font-weight="bold" lengthAdjust="spacingAndGlyphs" textLength="54" x="20.1838" y="50.9842">App.test</text><ellipse cx="264.1127" cy="99.742" fill="#F8F8F8" rx="34.1127" ry="13.242" style="stroke: #383838; stroke-width: 0.5;"/><text fill="#000000" font-family="Tahoma, sans-serif" font-size="12" lengthAdjust="spacingAndGlyphs" textLength="44" x="242.1127" y="103.4842">Comics</text><ellipse cx="129.2487" cy="47.242" fill="#F8F8F8" rx="27.7487" ry="13.242" style="stroke: #383838; stroke-width: 0.5;"/><text fill="#000000" font-family="Tahoma, sans-serif" font-size="12" font-weight="bold" lengthAdjust="spacingAndGlyphs" textLength="35" x="111.7487" y="50.9842">index</text><ellipse cx="366.8534" cy="99.5707" fill="#F8F8F8" rx="55.8534" ry="13.5707" style="stroke: #383838; stroke-width: 0.5;"/><text fill="#000000" font-family="Tahoma, sans-serif" font-size="12" lengthAdjust="spacingAndGlyphs" textLength="77" x="328.3534" y="103.3129">InputWrapper</text><ellipse cx="464.9558" cy="99.742" fill="#F8F8F8" rx="28.4558" ry="13.242" style="stroke: #383838; stroke-width: 0.5;"/><text fill="#000000" font-family="Tahoma, sans-serif" font-size="12" lengthAdjust="spacingAndGlyphs" textLength="36" x="446.9558" y="103.4842">Popup</text><ellipse cx="226.8275" cy="46.8655" fill="#F8F8F8" rx="57.3275" ry="13.8655" style="stroke: #383838; stroke-width: 0.5;"/><text fill="#000000" font-family="Tahoma, sans-serif" font-size="12" lengthAdjust="spacingAndGlyphs" textLength="81" x="186.3275" y="50.6077">serviceWorker</text><!--link App to api--><path d="M302.132,55.5946 C298.548,57.451 294.666,59.3704 291,61 C261.957,73.9114 252.923,72.8234 224,86 C222.046,86.8902 220.03,87.8777 218.041,88.8961 " fill="none" id="App-api" style="stroke: #000000; stroke-width: 0.55;"/><polygon fill="#000000" points="213.491,91.2976,223.3174,90.6334,217.9127,88.9634,219.5827,83.5587,213.491,91.2976" style="stroke: #000000; stroke-width: 0.55;"/><!--link App to Comics--><path d="M305.726,57.9772 C298.299,65.1903 288.129,75.0669 279.689,83.2636 " fill="none" id="App-Comics" style="stroke: #000000; stroke-width: 0.55;"/><polygon fill="#000000" points="275.704,87.1334,284.9474,83.7335,279.2912,83.6503,279.3744,77.994,275.704,87.1334" style="stroke: #000000; stroke-width: 0.55;"/><!--link App to InputWrapper--><path d="M326.321,58.2194 C333.324,65.1544 342.73,74.4678 350.733,82.3923 " fill="none" id="App-InputWrapper" style="stroke: #000000; stroke-width: 0.55;"/><polygon fill="#000000" points="354.532,86.1544,350.9519,76.9793,350.9794,82.636,345.3226,82.6635,354.532,86.1544" style="stroke: #000000; stroke-width: 0.55;"/><!--link App to Popup--><path d="M331.896,53.1805 C353.96,60.3979 395.095,73.951 430,86 C432.745,86.9474 435.606,87.948 438.458,88.9538 " fill="none" id="App-Popup" style="stroke: #000000; stroke-width: 0.55;"/><polygon fill="#000000" points="443.554,90.7594,436.4068,83.9831,438.8411,89.0894,433.7348,91.5237,443.554,90.7594" style="stroke: #000000; stroke-width: 0.55;"/><!--link <b>App.test</b> to App--><path d="M65.8832,35.1862 C76.0276,29.5333 88.9916,23.3798 101.5,20.5 C141.13,11.376 246.295,6.567 284.5,20.5 C291.241,22.9585 297.54,27.565 302.707,32.2563 " fill="none" id="&lt;b&gt;App.test&lt;/b&gt;-App" style="stroke: #000000; stroke-width: 1.0;"/><polygon fill="#000000" points="306.425,35.8262,302.7009,26.7086,302.8174,32.3642,297.1618,32.4807,306.425,35.8262" style="stroke: #000000; stroke-width: 1.0;"/><!--link <b>index</b> to App--><path d="M142.235,35.5032 C149.701,29.7869 159.515,23.4765 169.5,20.5 C218.481,5.899 236.482,2.988 284.5,20.5 C291.241,22.9585 297.54,27.565 302.707,32.2563 " fill="none" id="&lt;b&gt;index&lt;/b&gt;-App" style="stroke: #000000; stroke-width: 1.0;"/><polygon fill="#000000" points="306.425,35.8262,302.7009,26.7086,302.8174,32.3642,297.1618,32.4807,306.425,35.8262" style="stroke: #000000; stroke-width: 1.0;"/><!--link <b>index</b> to serviceWorker--><path d="M156.562,47 C159.122,47 161.681,47 164.241,47 " fill="none" id="&lt;b&gt;index&lt;/b&gt;-serviceWorker" style="stroke: #000000; stroke-width: 1.0;"/><polygon fill="#000000" points="169.494,47,160.494,43,164.494,47,160.494,51,169.494,47" style="stroke: #000000; stroke-width: 1.0;"/><script type="text/plantuml"><![CDATA[
@startuml

scale max 1920 width
top to bottom direction

skinparam nodesep 13
skinparam ranksep 25
skinparam monochrome true
skinparam shadowing false
skinparam defaultFontName Tahoma
skinparam defaultFontSize 12
skinparam roundCorner 4
skinparam dpi 150
skinparam arrowColor black
skinparam arrowThickness 0.55
skinparam packageTitleAlignment left

skinparam usecase {
  borderThickness 0.5
}

skinparam rectangle {
  borderThickness 0.5
}

skinparam component {
  borderThickness 1
}


(api)
(App)
(<b>App.test</b>)
(Comics)
(<b>index</b>)
(InputWrapper)
(Popup)
(serviceWorker)


(App) --> (api)
(App) --> (Comics)
(App) --> (InputWrapper)
(App) --> (Popup)
(<b>App.test</b>) -[thickness=1]> (App)
(<b>index</b>) -[thickness=1]> (App)
(<b>index</b>) -[thickness=1]> (serviceWorker)

@enduml


' View and edit on https://arkit.pro
]]></script></g></svg>